[2026-03-03T20:08:33.783Z] Pipeline started.
[2026-03-03T20:08:34.617Z] Downloading YouTube: https://youtube.com/shorts/-grO33ayfNc?si=iwdZpY4jfFGIqfJJ
[2026-03-03T20:08:54.150Z] ElevenLabs TTS seg 0 [21m00Tcm4TlvDq8ikWAM]: "Facebook ilk inşa ettiğim şey değildi."
[2026-03-03T20:08:55.670Z] Seg 0 done (40586 bytes) ✅
[2026-03-03T20:08:56.075Z] ElevenLabs TTS seg 1 [21m00Tcm4TlvDq8ikWAM]: "Ayrıca sohbet sistemleri ve oyunlar, çalışma araçl"
[2026-03-03T20:08:57.731Z] Seg 1 done (105787 bytes) ✅
[2026-03-03T20:08:58.030Z] ElevenLabs TTS seg 2 [21m00Tcm4TlvDq8ikWAM]: "J.K. Rowling Harry Potter'ı yazıp yayınlamadan önc"
[2026-03-03T20:08:59.424Z] Seg 2 done (73186 bytes) ✅
[2026-03-03T20:08:59.869Z] ElevenLabs TTS seg 3 [21m00Tcm4TlvDq8ikWAM]: "Hatta Beyonce Halo'yu elde etmek için yüzlerce şar"
[2026-03-03T20:09:01.262Z] Seg 3 done (79038 bytes) ✅
[2026-03-03T20:09:01.528Z] ElevenLabs TTS seg 4 [21m00Tcm4TlvDq8ikWAM]: "En büyük başarılar başarısız olma özgürlüğüne sahi"
[2026-03-03T20:09:02.825Z] Seg 4 done (65663 bytes) ✅
[2026-03-03T20:09:03.089Z] Running FFmpeg: C:\Users\fullm\Downloads\dubverse-saas\backend\node_modules\ffmpeg-static\ffmpeg.exe -i C:\Users\fullm\Downloads\dubverse-saas\tmp\uploads\cc9104c4-2119-4197-b5eb-f8e99f1ed279\audio.mp3 -i C:\Users\fullm\Downloads\dubverse-saas\tmp\uploads\cc9104c4-2119-4197-b5eb-f8e99f1ed279\segments\seg_0.mp3 -i C:\Users\fullm\Downloads\dubverse-saas\tmp\uploads\cc9104c4-2119-4197-b5eb-f8e99f1ed279\segments\seg_1.mp3 -i C:\Users\fullm\Downloads\dubverse-saas\tmp\uploads\cc9104c4-2119-4197-b5eb-f8e99f1ed279\segments\seg_2.mp3 -i C:\Users\fullm\Downloads\dubverse-saas\tmp\uploads\cc9104c4-2119-4197-b5eb-f8e99f1ed279\segments\seg_3.mp3 -i C:\Users\fullm\Downloads\dubverse-saas\tmp\uploads\cc9104c4-2119-4197-b5eb-f8e99f1ed279\segments\seg_4.mp3 -filter_complex [1:a]aformat=sample_rates=44100:channel_layouts=stereo,adelay=0|0[s0];[2:a]aformat=sample_rates=44100:channel_layouts=stereo,adelay=2500|2500[s1];[3:a]aformat=sample_rates=44100:channel_layouts=stereo,adelay=8340|8340[s2];[4:a]aformat=sample_rates=44100:channel_layouts=stereo,adelay=14880|14880[s3];[5:a]aformat=sample_rates=44100:channel_layouts=stereo,adelay=20340|20340[s4];[0:a]aformat=sample_rates=44100:channel_layouts=stereo,volume=0.12[bg];[bg][s0][s1][s2][s3][s4]amix=inputs=6:duration=first:dropout_transition=2,volume=6[mixed];[mixed]loudnorm=I=-23:TP=-1.5:LRA=11[out] -map [out] -acodec libmp3lame -ar 44100 -b:a 192k -y C:\Users\fullm\Downloads\dubverse-saas\tmp\uploads\cc9104c4-2119-4197-b5eb-f8e99f1ed279\dubbed_audio.mp3
[2026-03-03T20:09:03.285Z] FFmpeg Err: Input #0, mp3, from 'C:\Users\fullm\Downloads\dubverse-saas\tmp\uploads\cc9104c4-2119-4197-b5eb-f8e99f1ed279\audio.mp3':
  Metadata:
    major_brand     : mp42
    minor_version   : 0
    compatible_brands: isommp42
    encoder         : Lavf60.16.100
  Duration: 00:00:25.73, start: 0.025057, bitrate: 128 kb/s
  Stream #0:0: Audio: mp3, 44100 Hz, stereo, fltp, 128 kb/s
    Metadata:
      encoder         : Lavc60.31

[2026-03-03T20:09:03.288Z] FFmpeg Err: Input #1, mp3, from 'C:\Users\fullm\Downloads\dubverse-saas\tmp\uploads\cc9104c4-2119-4197-b5eb-f8e99f1ed279\segments\seg_0.mp3':
  Metadata:
    encoder         : Lavf60.16.100
  Duration: 00:00:02.51, start: 0.025057, bitrate: 64 kb/s
  Stream #1:0: Audio: mp3, 44100 Hz, mono, fltp, 64 kb/s
Input #2, mp3, from 'C:\Users\fullm\Downloads\dubverse-saas\tmp\uploads\cc9104c4-2119-4197-b5eb-f8e99f1ed279\segments\seg_1.mp3':
  Metadata:
    encoder         : Lavf60.16.100
  Duration: 00:00:06.58, start: 0.025057, bitrate: 64 kb/s
  Stream #2:0: Audio: mp3, 44100 Hz, mono, fltp, 64 kb/s
Input #3, mp3, from 'C:\Users\fullm\Downloads\dubverse-saas\tmp\uploads\cc9104c4-2119-4197-b5eb-f8e99f1ed279\segments\seg_2.mp3':
  Metadata:
    encoder         : Lavf60.16.100

[2026-03-03T20:09:03.291Z] FFmpeg Err:   Duration: 00:00:04.55, start: 0.025057, bitrate: 64 kb/s
  Stream #3:0: Audio: mp3, 44100 Hz, mono, fltp, 64 kb/s
Input #4, mp3, from 'C:\Users\fullm\Downloads\dubverse-saas\tmp\uploads\cc9104c4-2119-4197-b5eb-f8e99f1ed279\segments\seg_3.mp3':
  Metadata:
    encoder         : Lavf60.16.100
  Duration: 00:00:04.91, start: 0.025057, bitrate: 64 kb/s
  Stream #4:0: Audio: mp3, 44100 Hz, mono, fltp, 64 kb/s
Input #5, mp3, from 'C:\Users\fullm\Downloads\dubverse-saas\tmp\uploads\cc9104c4-2119-4197-b5eb-f8e99f1ed279\segments\seg_4.mp3':
  Metadata:
    encoder         : Lavf60.16.100
  Duration: 00:00:04.08, start: 0.025057, bitrate: 64 kb/s
  Stream #5:0: Audio: mp3, 44100 Hz, mono, fltp, 64 kb/s

[2026-03-03T20:09:03.296Z] FFmpeg Err: Stream mapping:
  Stream #0:0 (mp3float) -> aformat:default
  Stream #1:0 (mp3float) -> aformat:default
  Stream #2:0 (mp3float) -> aformat:default
  Stream #3:0 (mp3float) -> aformat:default
  Stream #4:0 (mp3float) -> aformat:default
  Stream #5:0 (mp3float) -> aformat:default
  loudnorm:default -> Stream #0:0 (libmp3lame)

[2026-03-03T20:09:03.417Z] FFmpeg Err: Output #0, mp3, to 'C:\Users\fullm\Downloads\dubverse-saas\tmp\uploads\cc9104c4-2119-4197-b5eb-f8e99f1ed279\dubbed_audio.mp3':
  Metadata:
    major_brand     : mp42
    minor_version   : 0
    compatible_brands: isommp42
    TSSE            : Lavf60.16.100
  Stream #0:0: Audio: mp3, 44100 Hz, stereo, fltp, 192 kb/s
    Metadata:
      encoder         : Lavc60.31.102 libmp3lame

[2026-03-03T20:09:03.420Z] FFmpeg Err: size=       0kB time=-00:00:00.02 bitrate=  -0.0kbits/s speed=N/A    
[2026-03-03T20:09:03.891Z] FFmpeg Err: size=     125kB time=00:00:05.27 bitrate= 194.1kbits/s speed=8.85x    
[2026-03-03T20:09:04.391Z] FFmpeg Err: size=     256kB time=00:00:11.28 bitrate= 185.8kbits/s speed=10.3x    
[2026-03-03T20:09:04.893Z] FFmpeg Err: size=     256kB time=00:00:17.89 bitrate= 117.2kbits/s speed=11.2x    
[2026-03-03T20:09:05.380Z] FFmpeg Err: [out#0/mp3 @ 000001b873b56f80] video:0kB audio:603kB subtitle:0kB other streams:0kB global headers:0kB muxing overhead: 0.123718%
size=     604kB time=00:00:25.69 bitrate= 192.5kbits/s speed=12.3x    

[2026-03-03T20:09:07.735Z] Running FFmpeg: C:\Users\fullm\Downloads\dubverse-saas\backend\node_modules\ffmpeg-static\ffmpeg.exe -i C:\Users\fullm\Downloads\dubverse-saas\tmp\uploads\cc9104c4-2119-4197-b5eb-f8e99f1ed279\video.mp4 -i C:\Users\fullm\Downloads\dubverse-saas\tmp\uploads\cc9104c4-2119-4197-b5eb-f8e99f1ed279\dubbed_audio.mp3 -map 0:v:0 -map 1:a:0 -c:v copy -c:a aac -b:a 192k -shortest -y C:\Users\fullm\Downloads\dubverse-saas\tmp\uploads\cc9104c4-2119-4197-b5eb-f8e99f1ed279\final_dubbed.mp4
[2026-03-03T20:09:07.858Z] FFmpeg Err: Input #0, mov,mp4,m4a,3gp,3g2,mj2, from 'C:\Users\fullm\Downloads\dubverse-saas\tmp\uploads\cc9104c4-2119-4197-b5eb-f8e99f1ed279\video.mp4':
  Metadata:
    major_brand     : mp42
    minor_version   : 0
    compatible_brands: isommp42
    creation_time   : 2023-10-04T09:42:15.000000Z
  Duration: 00:00:25.68, start: 0.000000, bitrate: 365 kb/s
  Stream #0:0[0x1](und): Video: h264 (Main) (avc1 / 0x31637661), yuv420p(tv, bt709, progressive), 360x640 [SAR 1:1 DAR 9:16], 233 kb/s, 25 fps, 25 tbr, 12800 tbn (default)
    Metadata:
      creation_time   : 2023-10-04T09:42:15.000000Z
      handler_name    : ISO Media file produced by Google Inc. Created on: 10/04/2023.
      vendor_id       : [0][0][0][0]
  Stream #0:1[0x2](eng): Audio: aac (LC) (mp4a / 0x6134706D), 44100 Hz, stereo, fltp, 128 kb/s (default)
    Metadata:
      creation_time   : 2023-10-04T09:42:15.000000Z
      handler_name    : ISO Media file produced by Google Inc. Created on: 10/04/2023.
      vendor_id       : [0][0][0][0]

[2026-03-03T20:09:07.862Z] FFmpeg Err: Input #1, mp3, from 'C:\Users\fullm\Downloads\dubverse-saas\tmp\uploads\cc9104c4-2119-4197-b5eb-f8e99f1ed279\dubbed_audio.mp3':
  Metadata:
    major_brand     : mp42
    minor_version   : 0
    compatible_brands: isommp42
    encoder         : Lavf60.16.100
  Duration: 00:00:25.73, start: 0.025057, bitrate: 192 kb/s
  Stream #1:0: Audio: mp3, 44100 Hz, stereo, fltp, 192 kb/s
    Metadata:
      encoder         : Lavc60.31
Stream mapping:
  Stream #0:0 -> #0:0 (copy)
  Stream #1:0 -> #0:1 (mp3 (mp3float) -> aac (native))

[2026-03-03T20:09:07.872Z] FFmpeg Err: Output #0, mp4, to 'C:\Users\fullm\Downloads\dubverse-saas\tmp\uploads\cc9104c4-2119-4197-b5eb-f8e99f1ed279\final_dubbed.mp4':
  Metadata:
    major_brand     : mp42
    minor_version   : 0
    compatible_brands: isommp42
    encoder         : Lavf60.16.100
  Stream #0:0(und): Video: h264 (Main) (avc1 / 0x31637661), yuv420p(tv, bt709, progressive), 360x640 [SAR 1:1 DAR 9:16], q=2-31, 233 kb/s, 
[2026-03-03T20:09:07.876Z] FFmpeg Err: 25 fps, 25 tbr, 12800 tbn (default)
    Metadata:
      creation_time   : 2023-10-04T09:42:15.000000Z
      handler_name    : ISO Media file produced by Google Inc. Created on: 10/04/2023.
      vendor_id       : [0][0][0][0]
  Stream #0:1: Audio: aac (LC) (mp4a / 0x6134706D), 44100 Hz, stereo, fltp, 192 kb/s
    Metadata:
      encoder         : Lavc60.31.102 aac
size=       0kB time=N/A bitrate=N/A speed=N/A    
[2026-03-03T20:09:08.363Z] FFmpeg Err: size=     256kB time=00:00:07.56 bitrate= 277.5kbits/s speed=  15x    
[2026-03-03T20:09:08.866Z] FFmpeg Err: size=     512kB time=00:00:11.72 bitrate= 357.9kbits/s speed=11.7x    
[2026-03-03T20:09:09.371Z] FFmpeg Err: size=     768kB time=00:00:19.04 bitrate= 330.5kbits/s speed=12.6x    
[2026-03-03T20:09:09.820Z] FFmpeg Err: [out#0/mp4 @ 0000024c1ff97340] video:733kB audio:611kB subtitle:0kB other streams:0kB global headers:0kB muxing overhead: 1.587993%
size=    1366kB time=00:00:25.65 bitrate= 436.0kbits/s speed=13.1x    

[2026-03-03T20:09:09.823Z] FFmpeg Err: [aac @ 0000024c1ff8e540] Qavg: 674.471

[2026-03-03T20:09:12.511Z] ✅ Pipeline finished successfully!
